<svg width="42" height="42" fill="none" xmlns="http://www.w3.org/2000/svg"><g clip-path="url(#clip0)"><path d="M21.8 36.575a.77.77 0 01.771-.771h2.648a9.772 9.772 0 003.708 1.507c-.056.013-.107.033-.165.033H22.57a.768.768 0 01-.77-.769zm-1.88-6.165h1.372a9.578 9.578 0 01-.313-1.54h-1.06a.771.771 0 000 1.54zm-5.67-19.462c-.946-.636-1.597-1.894-1.597-3.025a2.891 2.891 0 115.781 0c0 1.131-.652 2.39-1.599 3.025 2.266.574 3.944 2.543 3.944 4 0 1.722-10.47 1.722-10.47 0-.001-1.457 1.678-3.425 3.94-4zm-.176 3.826l1.468 1.466 1.47-1.466-1.236-2.986h.011l.48-.548a2.17 2.17 0 01-.725.132c-.25 0-.49-.05-.725-.135l.48.551h.012l-1.235 2.986zm19.35 25.546l.003-.002-.037-.065c-.02 0-.036.005-.053.005H6.5a2.519 2.519 0 01-2.516-2.516V4.191A2.518 2.518 0 016.5 1.678h26.837a2.518 2.518 0 012.515 2.515v15.355c.602.38 1.17.812 1.679 1.317V4.192A4.197 4.197 0 0033.337 0H6.5a4.197 4.197 0 00-4.194 4.192v33.55a4.197 4.197 0 004.194 4.19h26.837c.326 0 .643-.046.951-.118l-.864-1.495zM11.076 26.9h9.883a9.9 9.9 0 01.262-1.542H11.077a.77.77 0 00-.769.77.767.767 0 00.768.771zm0-7.024h13.848c.274-.199.56-.387.857-.559a9.764 9.764 0 012.402-.983H11.076a.77.77 0 00-.77.772c0 .426.345.77.77.77zm0 3.511h10.872c.271-.544.59-1.06.955-1.541H11.076a.77.77 0 000 1.541zm26.324.469c2.148 3.721.869 8.498-2.855 10.644-3.72 2.147-8.496.874-10.644-2.852-2.15-3.72-.87-8.496 2.85-10.645 3.723-2.149 8.501-.87 10.65 2.853zm-1.116.646c-1.795-3.106-5.78-4.174-8.885-2.384a6.507 6.507 0 00-2.379 8.886 6.509 6.509 0 008.883 2.383 6.515 6.515 0 002.381-8.885zm.222 9.52l-3.35 1.935 2.58 4.466 3.349-1.933-2.58-4.468zm2.928 5.076l-3.352 1.934a1.935 1.935 0 103.353-1.934z" fill="#F95E5E"/></g><defs><clipPath id="clip0"><path fill="#fff" d="M0 0h42v42H0z"/></clipPath></defs></svg>