<svg width="36" height="36" fill="none" xmlns="http://www.w3.org/2000/svg"><path d="M12.656 7.734A3.52 3.52 0 009.141 4.22a3.52 3.52 0 00-3.516 3.515 3.52 3.52 0 003.516 3.516 3.52 3.52 0 003.515-3.516zm-3.515 2.11a2.112 2.112 0 01-2.11-2.11c0-1.163.947-2.109 2.11-2.109 1.163 0 2.109.946 2.109 2.11a2.112 2.112 0 01-2.11 2.109z" fill="#F95E5E"/><path d="M9.14 18.281c5.102 0 9.141-4.159 9.141-9.14 0-5.04-4.1-9.141-9.14-9.141C4.1 0 0 4.1 0 9.14c0 4.982 4.038 9.141 9.14 9.141zm-3.51-2.249a3.52 3.52 0 013.512-3.376 3.52 3.52 0 013.512 3.376 7.733 7.733 0 01-7.024 0zM9.14 1.406c4.264 0 7.734 3.47 7.734 7.735a7.765 7.765 0 01-2.912 6.044A4.93 4.93 0 009.14 11.25a4.93 4.93 0 00-4.823 3.935 7.765 7.765 0 01-2.912-6.044c0-4.265 3.47-7.735 7.735-7.735zm21.235 24.047a3.52 3.52 0 00-3.516-3.515 3.52 3.52 0 00-3.515 3.515 3.52 3.52 0 003.515 3.516 3.52 3.52 0 003.516-3.516zm-3.516 2.11a2.112 2.112 0 01-2.109-2.11c0-1.163.946-2.11 2.11-2.11 1.163 0 2.109.947 2.109 2.11 0 1.163-.947 2.11-2.11 2.11z" fill="#F95E5E"/><path d="M26.86 17.719c-5.04 0-9.141 4.1-9.141 9.14 0 4.982 4.038 9.141 9.14 9.141S36 31.84 36 26.86c0-5.04-4.1-9.141-9.14-9.141zM23.346 33.75a3.52 3.52 0 013.512-3.376 3.52 3.52 0 013.512 3.376 7.732 7.732 0 01-7.024 0zm8.335-.847a4.93 4.93 0 00-4.823-3.935 4.93 4.93 0 00-4.822 3.935 7.765 7.765 0 01-2.912-6.045c0-4.264 3.47-7.734 7.734-7.734 4.265 0 7.735 3.47 7.735 7.734a7.765 7.765 0 01-2.912 6.045zm-15.087-.137a4.927 4.927 0 01-4.922-4.922v-.703h.703a.703.703 0 00.563-1.125l-4.22-5.625a.703.703 0 00-1.124 0l-4.219 5.625a.703.703 0 00.563 1.125h.703v.703a6.335 6.335 0 006.328 6.328h5.625a.703.703 0 000-1.406zm-5.625 0a4.927 4.927 0 01-4.922-4.922v-1.407a.703.703 0 00-.703-.703l2.812-3.75 2.813 3.75a.703.703 0 00-.703.703v1.407c0 1.985.919 3.76 2.354 4.922h-1.65zm8.437-29.532a4.927 4.927 0 014.922 4.922v.703h-.703a.703.703 0 00-.563 1.125l4.22 5.625a.704.704 0 001.124 0l4.219-5.625a.703.703 0 00-.563-1.125h-.703v-.703c0-.19-.008-.38-.025-.569a.703.703 0 00-1.4.125c.012.147.02.296.02.444v1.406c0 .389.314.704.702.704l-2.812 3.75-2.813-3.75a.703.703 0 00.703-.704V8.156a6.32 6.32 0 00-2.355-4.922h1.652c.563 0 1.114.094 1.638.28a.703.703 0 00.468-1.327 6.312 6.312 0 00-2.106-.359h-5.625a.703.703 0 000 1.406z" fill="#F95E5E"/><path d="M29.46 5.414a.703.703 0 10.001-1.406.703.703 0 000 1.406z" fill="#F95E5E"/></svg>