<svg width="53" height="53" fill="none" xmlns="http://www.w3.org/2000/svg"><rect width="53" height="53" rx="10" fill="#F88081"/><path d="M20.372 23.536a1 1 0 00-1.457 1.37l1.457-1.37zm8.084 10.048l-.729.685a1 1 0 001.58-.162l-.851-.523zm10.49-15.173a1 1 0 00-1.704-1.047l1.704 1.047zm-20.03 6.495l8.811 9.363 1.457-1.37-8.812-9.363-1.457 1.37zm10.392 9.201l9.638-15.696-1.704-1.047-9.639 15.697 1.705 1.046zM15.966 23.811a1 1 0 10-1.457 1.37l1.457-1.37zm7.355 10.734a1 1 0 101.457-1.371l-1.457 1.37zm11.217-15.857a1 1 0 10-1.701-1.05l1.701 1.05zM27.054 27a1 1 0 101.702 1.051l-1.702-1.05zm-12.545-1.818l8.812 9.363 1.457-1.371-8.812-9.363-1.457 1.37zm14.247 2.87l5.782-9.364-1.701-1.05L27.054 27l1.702 1.051z" fill="#fff"/></svg>