<svg width="44" height="44" fill="none" xmlns="http://www.w3.org/2000/svg"><g clip-path="url(#clip0)" fill="#F95E5E"><path d="M42.645 15.175C39.081 3.79 26.921-2.573 15.533.99 4.146 4.554-2.217 16.717 1.346 28.103l1.4-.439C-.577 17.05 5.356 5.711 15.97 2.388a20.042 20.042 0 0115.376 1.378 20.042 20.042 0 019.9 11.848 20.04 20.04 0 01-1.378 15.376 20.035 20.035 0 01-11.847 9.9c-8.607 2.693-18.042-.709-22.95-8.274l-1.23.797c4.057 6.255 11 9.857 18.197 9.856 2.14 0 4.304-.318 6.42-.982a21.496 21.496 0 0012.71-10.617 21.495 21.495 0 001.477-16.494z"/><path d="M17.748 10.262l.42-1.405-7.33-2.199a.732.732 0 00-.728.184L8.644 8.308a.734.734 0 00.221 1.188l6.597 2.932.595-1.34-5.621-2.498.402-.402 6.91 2.074z"/><path d="M24.556 5.895a.733.733 0 00-.733-.733h-.001c-1.613 0-3.13.629-4.27 1.77l-6.215 6.214-2.53-.633a.733.733 0 00-.696.193l-1.466 1.466a.732.732 0 00.14 1.146l3.509 2.106 2.105 3.508a.732.732 0 001.147.141l1.466-1.466a.735.735 0 00.193-.696l-.632-2.527 6.314-6.252c1.078-1.128 1.67-2.61 1.67-4.237zm-9.312 9.74a.733.733 0 00-.196.699l.633 2.529-.509.509-1.716-2.86a.73.73 0 00-.251-.252l-2.86-1.716.509-.508 2.53.632a.73.73 0 00.695-.192l6.51-6.51a4.534 4.534 0 012.443-1.27 4.52 4.52 0 01-1.191 2.408l-6.597 6.531z"/><path d="M23.059 18.975L20.86 11.55l-1.406.417 2.066 6.976-.444.393-2.444-5.669-1.347.58 2.844 6.597a.734.734 0 001.158.26l1.554-1.37a.734.734 0 00.218-.759zm-8.741 21.44c-5.22 2.474-9.316 2.794-11.233.877-3.323-3.324.286-12.979 8.394-22.46l-1.114-.953C1.472 28.278-1.949 38.332 2.048 42.329 3.164 43.443 4.74 44 6.696 44c2.28 0 5.074-.755 8.249-2.26l-.627-1.325zM39.13 25.339a.733.733 0 00-.647-.387h-2.48l-1.996-3.993a.734.734 0 00-.656-.405h-7.33a.733.733 0 00-.733.733v5.864c0 .405.328.733.733.733h2.2v8.062c0 .406.327.733.732.733h3.665a.74.74 0 00.52-.215l2.93-2.932a.73.73 0 00.216-.518v-2.71l2.808-4.213a.733.733 0 00.037-.752zm-4.19 4.337a.737.737 0 00-.123.407v2.628l-2.502 2.502h-2.629v-8.062a.732.732 0 00-.733-.733h-2.2V22.02h6.145l1.996 3.992a.734.734 0 00.656.406h1.563l-2.173 3.258zm4.7-10.588l-2.72-4.761a.733.733 0 00-.637-.37h-4.398a.734.734 0 00-.61.326l-1.248 1.873h-1.806v-3.665h3.664c.195 0 .38-.077.518-.214l2.718-2.718h3.36V8.094h-3.664a.731.731 0 00-.518.214l-2.717 2.717h-4.095a.733.733 0 00-.732.733v5.131c0 .405.327.733.733.733h2.931a.734.734 0 00.61-.326l1.248-1.873h3.581l2.72 4.761c.131.23.375.37.637.37h2.932v-1.466H39.64z"/><path d="M21.624 26.418h-4.095l-1.984-1.984a.731.731 0 00-.518-.215h-3.665a.733.733 0 00-.733.733v5.13c0 .406.329.733.733.733h2.932v7.33a.734.734 0 001.173.586l2.932-2.198a.734.734 0 00.293-.587V34.1l3.39-2.711a.734.734 0 00.275-.572V27.15a.733.733 0 00-.733-.733zm-.733 4.046l-3.39 2.711a.733.733 0 00-.275.572v1.833l-1.466 1.1v-6.597a.733.733 0 00-.733-.733h-2.932v-3.665h2.629l1.984 1.984a.731.731 0 00.518.215h3.665v2.58zM6.86 15.779l-2.2-3.665a.732.732 0 00-.627-.356H3.3v1.466h.318l1.69 2.819-1.793 1.794a.73.73 0 00-.215.518v2.199H1.1v1.466h2.933a.733.733 0 00.733-.733v-2.628l1.984-1.985a.734.734 0 00.11-.895zM23.09.764v.894l-2.377.594a.746.746 0 00-.228.102l-1.845 1.23-4.018-2.01-.655 1.312 4.397 2.199a.737.737 0 00.734-.047l2.093-1.395 2.81-.702a.733.733 0 00.555-.711V.764H23.09z"/></g><defs><clipPath id="clip0"><path fill="#fff" d="M0 0h44v44H0z"/></clipPath></defs></svg>