<svg width="56" height="56" fill="none" xmlns="http://www.w3.org/2000/svg"><rect width="56" height="56" rx="10" fill="#FF848B"/><path d="M21.906 18.523c1.411 0 2.705.448 3.845 1.33 1.093.845 1.82 1.921 2.249 2.704.428-.783 1.156-1.86 2.25-2.705 1.14-.881 2.433-1.329 3.844-1.329 3.937 0 6.906 3.22 6.906 7.491 0 4.614-3.704 7.77-9.312 12.55-.952.81-2.031 1.73-3.153 2.712a.811.811 0 01-1.07 0 321.462 321.462 0 00-3.154-2.713C18.704 33.785 15 30.628 15 26.014c0-4.27 2.97-7.49 6.906-7.49z" fill="#fff"/></svg>