<svg width="199" height="107" fill="none" xmlns="http://www.w3.org/2000/svg"><path stroke="#6C6D80" stroke-opacity=".77" stroke-width=".75" stroke-dasharray="2 5" d="M0 29.001h199M0 54.587h199M0 80.173h199M0 105.758h199"/><path d="M0 14.214a6.633 6.633 0 1113.267 0v91.919H0V14.214zm53.067 6.634a6.633 6.633 0 1113.266 0v85.285H53.067V20.848z" fill="#F88081"/><path d="M79.6 44.538a6.633 6.633 0 0113.267 0v61.595H79.6V44.538z" fill="#FFD3D4"/><path d="M106.133 79.6a6.634 6.634 0 0113.267 0v26.533h-13.267V79.6z" fill="#F88081"/><path d="M132.667 39.8a6.633 6.633 0 0113.266 0v66.333h-13.266V39.8z" fill="#FFD3D4"/><path d="M159.2 6.633a6.633 6.633 0 0113.267 0v99.5H159.2v-99.5z" fill="#F88081"/><path d="M185.733 24.638a6.634 6.634 0 0113.267 0v81.495h-13.267V24.638zm-159.2 33.167a6.633 6.633 0 0113.267 0v48.328H26.533V57.805z" fill="#FFD3D4"/></svg>