<svg width="40" height="40" fill="none" xmlns="http://www.w3.org/2000/svg"><path d="M39.962 17.492l-4.61-14.185a.781.781 0 00-.985-.502L.54 13.798a.781.781 0 00-.502.984l2.182 6.715-.002.04v14.915c0 .432.35.781.782.781h35.568c.432 0 .782-.35.782-.78V21.535a.781.781 0 00-.782-.78H32.45l7.01-2.279a.782.782 0 00.502-.985zm-2.175 4.825v13.354H3.781V22.317h4.327v8.704a.781.781 0 001.563 0v-8.704h28.116zm-10.393-1.562H3.622l-1.856-5.713 4.118-1.338 1.575 4.787a.782.782 0 101.484-.488L7.37 13.22l26.737-8.688 4.127 12.7-10.84 3.522z" fill="#F95E5E"/><path d="M32.922 7.957a.782.782 0 00-.985-.502l-20.369 6.62a.781.781 0 00.483 1.486l20.37-6.62a.781.781 0 00.5-.984zm-3.435 5.074l3.855-1.252a.781.781 0 00-.483-1.486l-3.855 1.252a.782.782 0 00.483 1.486zm3.258 3.589a.782.782 0 00.985.502l1.22-.397a.781.781 0 00-.483-1.486l-1.22.397a.782.782 0 00-.502.984zm-2.223-.099l-1.22.397a.781.781 0 00.483 1.486l1.22-.397a.781.781 0 00-.483-1.486zM19.62 14.595l-7.13 2.317a.781.781 0 00.483 1.486l7.13-2.317a.781.781 0 00-.484-1.486zM8.89 32.84a.781.781 0 00-.782.782v.306a.781.781 0 001.563 0v-.306a.781.781 0 00-.781-.781zm3.731-7.632c0 .431.35.781.781.781H34.82a.781.781 0 000-1.563H13.402a.781.781 0 00-.78.782zM34.82 27.41h-4.054a.781.781 0 000 1.562h4.054a.781.781 0 000-1.562zm0 5.201h-1.283a.781.781 0 000 1.563h1.283a.781.781 0 000-1.563zm-4.148 0H29.39a.781.781 0 000 1.563h1.283a.781.781 0 000-1.563zm-9.773-5.201h-7.496a.781.781 0 000 1.562h7.496a.781.781 0 000-1.562z" fill="#F95E5E"/></svg>