<svg width="44" height="44" fill="none" xmlns="http://www.w3.org/2000/svg"><g clip-path="url(#clip0)" fill="#F88081"><path d="M41.744 2.581H28.025a2.257 2.257 0 00-2.256 2.256v13.719a2.257 2.257 0 002.256 2.256h6.566c-.086 3.592-.92 6.467-2.5 8.628-1.245 1.706-3.132 3.119-5.654 4.233a2.253 2.253 0 00-1.12 3.028l1.625 3.43a2.256 2.256 0 002.938 1.1c2.987-1.29 5.51-2.923 7.568-4.909 2.509-2.423 4.228-5.158 5.158-8.208.93-3.05 1.394-7.212 1.394-12.491V4.837a2.257 2.257 0 00-2.256-2.256zM4.785 41.223c2.951-1.286 5.46-2.92 7.532-4.9 2.531-2.424 4.26-5.15 5.19-8.178.929-3.028 1.394-7.202 1.394-12.522V4.837a2.257 2.257 0 00-2.257-2.256H2.926A2.257 2.257 0 00.669 4.837v13.719a2.257 2.257 0 002.257 2.256h6.566c-.086 3.592-.92 6.467-2.5 8.628-1.246 1.706-3.132 3.119-5.655 4.233a2.253 2.253 0 00-1.119 3.028l1.62 3.42a2.263 2.263 0 002.947 1.102z"/></g><defs><clipPath id="clip0"><path fill="#fff" d="M0 0h44v44H0z"/></clipPath></defs></svg>